Patient4_TMGait_0pt8_01_left_37_EMG.mot
version=1
nRows=37
nColumns=33
inDegrees=no
endheader
time	1LAddLong	2LGlutMax	3LGlutMed	4LIliopsoas	5LSemiMemb	6LBicFemLong	7LRecFem	8LVastMed	9LVastLat	10LGasMed	11LTibAnt	12lTibPost	13LPeroneusLong	14LSol	15LExtDigLong	16LFlexDigLong	17RAddLong	18RGlutMax	19RGlutMed	20RIliopsoas	21RSemiMemb	22RBicFemLong	23RRecFem	24RVastMed	25RVastLat	26RGasMed	27RTibAnt	28RTibPost	29RPeroneusLong	30RSol	31RExtDigLong	32RFlexDigLong
41.287	0.034332	0.9053	0.072327	-0.003357	0.12909	-0.65903	0.37415	-0.010834	-0.19989	-0.2124	-0.056763	0.016785	-0.11032	-0.36209	0.077515	0.058594	-0.005951	0.00351	0.073242	0.097961	-0.16037	-0.003967	0.84076	-0.057678	-0.029297	0.031128	0.015564	-0.049133	0.11459	-0.049133	0.004425	-0.00061
41.288	0.040283	0.88531	-0.025482	-0.010529	0.15411	-0.11932	0.46829	-0.014496	-0.21896	-0.13733	-0.0177	0.032043	-0.3537	-0.20905	0.080261	0.062714	0.00412	0.014191	0.17303	-0.095367	-0.16357	-0.013428	0.87418	-0.032501	-0.039368	0.031738	0.014343	-0.073395	0.25482	-0.1828	-0.001221	-0.005798
41.289	0.03067	0.86609	-0.11719	-0.001678	0.077057	0.10361	0.41672	-0.015259	-0.3392	-0.06897	0.031281	0.024719	-0.15488	-0.015411	0.030212	0.066071	-0.004272	-0.042877	-0.11398	-0.085449	-0.16815	-0.030975	0.82153	-0.055847	-0.032501	0.020447	0.004425	-0.089874	0.34653	-0.1413	-0.002899	-0.003052
41.29	0.026703	0.83466	-0.13168	0.003204	0.027924	0.32089	0.3537	-0.023804	-0.46982	-0.037994	0.024872	0.042877	0.20844	0.11826	0.015717	0.066681	0.009003	0.019379	-0.29984	-0.040283	-0.17975	-0.030212	0.8255	-0.05188	-0.028992	-0.00473	0.036011	-0.077362	0.069427	-0.12695	-0.004425	-0.005341
41.291	0.036469	0.7486	-0.13397	-0.029907	-0.016479	0.59021	0.35126	-0.009003	-0.46783	-0.10803	0.018463	0.056305	0.18738	0.2385	0.032043	0.073242	0.019531	-0.063019	-0.38254	0.06073	-0.16327	-0.034027	0.81268	-0.063019	-0.016174	-0.003052	0.039063	-0.083923	-0.054169	-0.074921	-0.002594	-0.010681
41.292	0.028534	0.74265	-0.084686	0.00351	-0.063019	0.68253	0.34286	-0.00351	-0.39871	-0.11398	0.040741	0.065308	0.076447	0.35919	-0.053406	0.065765	0.015564	-0.14435	-0.46112	0.00885	-0.16846	-0.024719	0.79758	-0.04364	-0.017548	-0.000305	0.062256	-0.072479	-0.15259	-0.10101	-0.001831	-0.007019
41.293	0.02182	0.77042	-0.16281	-0.002747	-0.12314	0.61874	0.31723	0.007172	-0.33157	-0.073242	0.04715	0.081482	-0.44403	0.40359	-0.085754	0.049896	0.015564	-0.19974	-0.41458	-0.046844	-0.17548	-0.031128	0.76431	-0.012665	-0.031433	0.002899	0.053558	-0.076752	-0.2214	-0.17563	-0.001373	-0.017395
41.294	0.003967	0.8223	-0.079041	0.010071	-0.16571	0.24246	0.29541	0.00351	-0.29816	-0.062408	-0.018005	0.078583	-0.16663	0.4042	-0.15778	0.055847	0.020599	-0.25406	-0.53253	-0.025024	-0.16312	-0.025024	0.75028	-0.009766	-0.032196	0.009766	0.019989	-0.098877	-0.075226	0.00824	-0.000153	-0.020142
41.295	0.007477	0.80765	-0.055084	0.013123	-0.17685	-0.010376	0.21408	0.021057	-0.23239	-0.046997	-0.020447	0.092163	0.22842	0.1651	-0.2536	0.031738	0.018158	-0.28686	-0.62775	0.000763	-0.16525	-0.039215	0.71304	-0.012665	-0.035553	-0.003052	0.002289	-0.36331	-0.065613	0.17273	-0.002747	-0.019226
41.296	0.025787	0.7843	-0.007172	0.00824	-0.15884	-0.11337	0.15427	0.012054	-0.20065	0.043335	0.10162	0.097961	0.35507	-0.054321	-0.10056	0.031891	-0.016174	-0.38177	-0.69046	0.052795	-0.16052	-0.035095	0.67383	-0.016327	-0.038147	-0.024719	0.027618	-0.042572	0.049591	-0.003204	0.000458	-0.021362
41.297	-0.007172	0.81573	-0.044861	0.027161	-0.00885	-0.68481	0.072937	0.005798	-0.1831	0.1265	0.11154	0.10132	-0.027924	-0.1181	-0.15182	0.019989	-0.030975	-0.45807	-0.74875	0.11826	-0.13718	-0.047607	0.71732	-0.036316	-0.015259	-0.013428	0.022736	0.14404	-0.28854	-0.23697	0.00061	-0.019989
41.298	0.055237	0.79041	-0.081635	0.014191	0.008392	-0.5954	0.04837	0.003357	-0.14496	0.13382	0.087433	0.11414	-0.16388	0.17746	0.45822	0.025177	-0.049744	-0.48752	-0.62103	0.072327	-0.13626	-0.043793	0.71976	-0.059814	-0.024261	0.000305	0.051575	0.097504	-0.3743	-0.49286	0.000763	-0.022736
41.299	0.004578	0.7933	0.036621	0.000153	-0.00351	-0.46692	-0.002441	0.010986	-0.014954	0.29098	0.091248	0.12375	-0.038605	0.14969	0.46539	0.017395	-0.061951	-0.56763	-0.63294	0.019226	-0.1358	-0.048523	0.61844	-0.034637	-0.011902	-0.002136	0.074768	0.040283	-0.26794	-0.49988	-0.001831	-0.010986
41.3	0.018768	0.96497	0.11429	-0.009308	0.024414	-0.37979	-0.031891	0.016479	0.061493	0.36102	-0.007172	0.12451	0.005188	0.22201	0.22781	0.011902	-0.064697	-0.61981	-0.74432	-0.05661	-0.12848	-0.045166	0.63049	-0.027771	-0.023956	0.000153	0.058746	0.009155	-0.17807	-0.00946	-0.003815	-0.003052
41.301	0.023804	1.1226	0.060883	0.009155	0.000458	-0.050049	-0.098877	0.014038	0.058594	0.36224	-0.037079	0.13702	-0.005646	0.21179	-0.027771	0.014496	-0.047913	-0.67459	-0.94284	-0.092163	-0.1297	-0.057983	0.69931	-0.080872	-0.030823	-0.013733	0.070343	-0.17197	-0.082397	0.12054	-0.00061	-0.007782
41.302	0.046692	1.1467	-0.086365	-0.001373	0.003052	0.074615	-0.16769	-0.036316	-0.017548	0.34607	0.023041	0.13138	-0.051575	0.083771	-0.14038	0.01358	-0.039825	-0.70114	-0.94772	-0.074158	-0.13016	-0.07019	0.70572	-0.038605	-0.032196	0.003357	0.067749	-0.14816	-0.24658	0.1326	0.000305	-0.00351
41.303	0.034943	0.97763	-0.24597	-0.001068	-0.04425	0.18768	-0.27313	0.011749	-0.095978	0.050201	-0.010681	0.13062	-0.084991	-0.14297	-0.17578	-0.029449	-0.007629	-0.77682	-0.95505	-0.053711	-0.14938	-0.09201	0.73334	-0.004578	-0.04837	-0.00351	0.065613	-0.15839	0.086823	0.033417	-0.003967	-0.006866
41.304	0.024261	0.75806	-0.26886	0.006104	-0.096588	0.17624	-0.19775	-0.010376	-0.15915	-0.28336	-0.066528	0.1442	-0.042114	-0.22278	-0.16434	0.098877	0.061951	-0.80154	-0.97534	-0.065613	-0.17029	-0.10757	0.7933	-0.057373	-0.048828	-0.018158	0.12299	0.021973	0.052032	0.40634	-0.008545	-0.016327
41.305	0.02182	0.61951	-0.20386	0.013275	-0.10407	-0.23178	-0.12802	-0.002441	-0.11536	-0.22461	-0.002289	0.13825	0.065155	-0.03479	-0.013275	0.036316	0.094299	-0.79224	-0.94589	-0.076904	-0.17807	-0.12695	0.77408	-0.11063	-0.048676	-0.020599	0.12299	0.19165	-0.12238	0.33554	-0.002289	-0.014801
41.306	0.044098	0.47623	-0.085907	0.015564	-0.060577	-0.61752	-0.13382	-0.001221	-0.038452	-0.048828	0.033417	0.17029	0.30014	0.13596	0.070953	-0.1564	0.081329	-0.83511	-1.086	-0.040131	-0.20371	-0.12665	0.8432	-0.10117	-0.055237	0.007019	0.014496	-0.006714	-0.29007	-0.023651	-0.004272	-0.01297
41.307	0.046844	0.37155	-0.059357	0.046387	0.055237	-0.44281	-0.19791	0.009003	-0.049896	0.065765	0.007172	0.16007	0.053864	0.24933	0.058441	0.17487	0.059967	-0.82977	-1.2558	-0.003052	-0.21072	-0.13092	0.85327	-0.15152	-0.076141	0.026398	0.005188	0.075836	-0.061798	-0.20966	0	-0.016479
41.308	0.047913	0.24063	-0.037689	0.0383	0.077515	-0.25833	-0.25253	0.029297	0.011292	0.20569	-0.005798	0.14801	0.8873	-0.026245	0.11398	0.094299	0.035706	-0.80872	-1.3416	-0.018311	-0.22903	-0.16052	0.78491	-0.22186	-0.088959	-0.007477	0.003204	0.10025	0.17227	-0.60654	0	-0.019836
41.309	0.040894	0.14862	0.080719	0.022736	0.018158	-0.020752	-0.32562	0.026703	0.11017	0.071564	-0.10193	0.15671	0.93765	-0.32272	0.12497	-0.12375	-0.010376	-0.76721	-1.2848	-0.000153	-0.23407	-0.14328	0.86441	-0.24017	-0.082703	-0.033264	-0.029755	-0.057068	0.39764	-0.93323	-0.004272	-0.022278
41.31	0.028229	0.13016	0.14908	0.018616	-0.004883	0.21698	-0.42343	0.02533	0.15182	-0.27603	-0.13534	0.14023	-0.46845	-0.30136	0.12985	-0.055389	-0.045471	-0.7663	-1.2643	-0.002441	-0.20783	-0.12848	0.8548	-0.20752	-0.072632	-0.033875	0.029297	-0.19333	0.25024	-0.19836	-0.003967	-0.030212
41.311	0.022278	0.14053	0.093994	-0.019073	-0.015259	0.25742	-0.47165	0.017853	0.15808	-0.24979	-0.095367	0.14755	-0.8165	-0.16251	0.11826	0.019073	-0.089722	-0.63126	-1.1841	0.003967	-0.21637	-0.10819	0.72357	-0.24063	-0.058594	-0.045166	0.037537	-0.062714	0.26093	0.36072	-0.005798	-0.013275
41.312	0.013275	0.17151	-0.060425	-0.001373	-0.048523	0.069275	-0.33951	-0.00061	-0.10574	-0.17166	0.093384	0.1442	-0.79956	-0.14481	0.26276	0.011139	-0.10803	-0.4895	-1.2094	0.068817	-0.18478	-0.072479	0.40756	-0.25192	-0.050659	-0.029144	0.068817	0.27481	0.28198	0.5571	0.000458	-0.005035
41.313	0.005035	0.13077	-0.15411	-0.013428	-0.075989	0.058899	-0.3186	-0.007324	-0.21179	-0.16571	0.26093	0.11246	-0.23209	-0.29221	0.29678	0.001068	-0.080566	-0.47424	-1.4883	0.14465	-0.15366	-0.025177	0.34882	-0.22369	-0.025787	0.009766	0.22614	0.10834	0.20523	-0.21805	-0.001221	-0.006104
41.314	-0.008087	0.051727	-0.15305	-0.025482	-0.086823	0.13687	-0.38071	-0.030518	-0.054626	-0.087128	0.22171	0.097504	0.31448	-0.34683	0.41672	0.000763	-0.019226	-0.45807	-1.4304	0.10544	-0.12421	-0.007324	0.33279	-0.17975	-0.016327	0.037079	0.36972	0.029297	0.15518	-0.41046	-0.001373	-0.009003
41.315	-0.010681	-0.021515	-0.16251	-0.016479	-0.070953	0.042114	-0.35217	-0.032959	0.017548	0.015564	0.098419	0.071716	0.11993	0.10208	0.18188	0.003815	0.023346	-0.39627	-1.4983	0.037537	-0.083923	0.03067	0.30807	-0.14526	-0.009918	0.027313	0.4184	-0.031128	-0.071259	-0.1976	-0.003357	-0.008698
41.316	-0.014648	-0.16953	-0.19547	0.004883	-0.022888	0.054626	-0.45563	-0.024872	0.11292	0.003357	0.12512	0.04776	-0.066528	0.38406	-0.055695	-0.00351	0.010223	-0.41367	-1.7377	-0.003967	-0.061188	0.025177	0.4747	-0.06897	-0.00824	-0.006714	0.40115	-0.046387	-0.075073	-0.14603	-0.001373	-0.017242
41.317	-0.006561	-0.17807	-0.21927	0.024567	-0.025787	0.21606	-0.4277	-0.00885	0.14923	-0.11475	0.018616	0.014954	0.35111	0.46631	-0.33173	0.007172	0.045471	-0.38513	-1.7647	-0.1001	-0.015869	0.006409	0.52689	-0.097046	-0.002441	-0.040588	0.019226	-0.20645	-0.20874	-0.031586	-0.003204	-0.016785
41.318	-0.003204	-0.097656	-0.15015	0.018616	-0.061035	0.26306	-0.33783	-0.016632	0.036011	-0.1944	-0.26367	-0.024261	0.67917	0.45212	-0.56519	0.009918	0.068359	-0.392	-1.5739	-0.044861	-0.018158	-0.004272	0.62332	-0.10086	-0.001068	-0.028076	-0.5339	0.20401	-0.37033	-0.17685	-0.00351	-0.014343
41.319	-0.000458	-0.050812	-0.072784	0.018921	-0.067596	0.23483	-0.22995	0.00412	-0.092926	-0.16296	-0.35111	-0.053101	0.31372	0.28778	-0.93979	0.016479	0.059509	-0.34119	-1.4917	0.06012	-0.027618	0.033875	0.83405	0.003357	0.002441	-0.007935	-0.40909	0.10757	-0.20355	-0.2803	-0.00473	-0.014801
41.32	0.005188	-0.006866	0.007477	-0.005798	-0.082092	0.28366	-0.26169	0.01358	-0.030518	-0.064087	-0.11093	-0.092773	0.12772	0.17807	-0.78186	0.006256	0.071869	-0.26733	-1.4507	0.033722	-0.046234	0.001984	0.71518	0.047913	0.005798	0.005188	-0.41092	0.009613	0.38467	-0.24139	-0.002136	-0.00946
41.321	0.01236	0.005188	0.027618	0.002594	-0.031586	0.45563	-0.27771	0.033569	0.065002	0.041199	0.046844	-0.11414	0.2504	0.22614	-0.44632	0.006561	0.06012	-0.26382	-1.2491	-0.028229	-0.06546	-0.012817	0.47226	-0.054626	-0.029144	0.003662	-0.34637	-0.014801	0.60837	-0.24948	-0.005341	-0.013428
41.322	0.007019	0	0.11841	0.008087	-0.064087	0.30624	-0.36606	0.036926	0.051575	0.058136	0.056458	-0.12299	0.20355	0.16769	-0.084534	0.015259	0.042419	-0.20599	-1.3049	0.033875	-0.074615	-0.067444	0.34378	-0.1059	-0.020905	-0.003357	-0.20309	-0.039978	0.33478	-0.22812	-0.006256	-0.013123
41.323	0.002899	-0.097809	-0.025177	0.023804	-0.081177	-0.04425	-0.38681	0.027008	0.14587	0.068054	0.020905	-0.1442	-0.32562	0.030823	-0.019226	0.002747	0.018005	-0.11795	-1.5186	0.15625	-0.097656	-0.081329	0.29816	-0.17944	-0.0383	-0.009155	-0.39871	-0.045471	0.47836	-0.080872	-0.002899	-0.017395
